<svg width="85" height="21" viewBox="0 0 85 21" fill="none" xmlns="http://www.w3.org/2000/svg">
<path d="M3.84 16H0.276L0.492 6.76H5.136L5.64 9.868H5.748L6.252 6.76H10.86L11.076 16H7.512V11.2H7.404L6.648 16H4.704L3.948 11.08H3.84V16ZM21.0638 16H17.1758L17.0558 14.896H15.3518L15.2318 16H11.3438L13.7198 6.76H18.6878L21.0638 16ZM15.8798 10.18L15.7478 11.332H16.6598L16.5278 10.18H15.8798ZM25.6553 11.512L29.5793 11.74V13.396C29.5793 14.26 29.1873 14.936 28.4033 15.424C27.6273 15.912 26.5433 16.156 25.1513 16.156C24.3433 16.156 23.6273 16.048 23.0033 15.832C22.3793 15.616 21.8793 15.304 21.5033 14.896C21.1273 14.48 20.9033 13.98 20.8313 13.396C20.8073 13.18 20.7873 12.896 20.7713 12.544C20.7553 12.184 20.7473 11.792 20.7473 11.368C20.7473 10.944 20.7553 10.556 20.7713 10.204C20.7873 9.852 20.8073 9.568 20.8313 9.352C20.9033 8.76 21.1273 8.26 21.5033 7.852C21.8793 7.436 22.3793 7.12 23.0033 6.904C23.6273 6.68 24.3433 6.568 25.1513 6.568C26.0633 6.568 26.8473 6.68 27.5033 6.904C28.1673 7.128 28.6793 7.448 29.0393 7.864C29.3993 8.272 29.5793 8.768 29.5793 9.352V10.444L25.6553 10.864V9.892C25.6553 9.676 25.5473 9.568 25.3313 9.568C25.1153 9.568 25.0073 9.676 25.0073 9.892V12.808C25.0073 13.024 25.1153 13.132 25.3313 13.132C25.5473 13.132 25.6553 13.024 25.6553 12.808V11.512Z" fill="black"/>
<path d="M48.84 16H45.276L45.492 6.76H50.136L50.64 9.868H50.748L51.252 6.76H55.86L56.076 16H52.512V11.2H52.404L51.648 16H49.704L48.948 11.08H48.84V16ZM66.0638 16H62.1758L62.0558 14.896H60.3518L60.2318 16H56.3438L58.7198 6.76H63.6878L66.0638 16ZM60.8798 10.18L60.7478 11.332H61.6598L61.5278 10.18H60.8798ZM69.8752 16H66.3112V6.76H70.5232L71.3272 10.12H71.4352L71.3872 6.76H74.9512V16H71.0632L69.9232 11.68H69.8152L69.8752 16ZM84.9309 16H81.0429L80.9229 14.896H79.2189L79.0989 16H75.2109L77.5869 6.76H82.5549L84.9309 16ZM79.7469 10.18L79.6149 11.332H80.5269L80.3949 10.18H79.7469Z" fill="black"/>
<path d="M35.6133 10.6982C35.5586 10.8441 35.5039 10.9922 35.4492 11.1426C35.3945 11.293 35.3398 11.4479 35.2852 11.6074C35.5723 11.2793 35.8184 11.0127 36.0234 10.8076C36.2331 10.598 36.4085 10.4339 36.5498 10.3154C36.6956 10.1969 36.8118 10.1172 36.8984 10.0762C36.9896 10.0306 37.0602 10.0078 37.1104 10.0078C37.1696 10.0078 37.2585 10.0374 37.377 10.0967C37.4954 10.1559 37.6139 10.2288 37.7324 10.3154C37.8555 10.402 37.9603 10.4909 38.0469 10.582C38.138 10.6732 38.1836 10.7529 38.1836 10.8213C38.1836 10.835 38.1813 10.8532 38.1768 10.876C38.1722 10.8942 38.1654 10.9193 38.1562 10.9512C38.1198 11.0651 38.0719 11.1995 38.0127 11.3545C37.958 11.5094 37.8988 11.6712 37.835 11.8398C37.7712 12.0039 37.7074 12.1702 37.6436 12.3389C37.5798 12.5029 37.5228 12.6579 37.4727 12.8037C37.4225 12.9495 37.3815 13.0771 37.3496 13.1865C37.3177 13.2959 37.3018 13.3757 37.3018 13.4258C37.3018 13.4531 37.3154 13.4668 37.3428 13.4668C37.3929 13.4668 37.4681 13.4372 37.5684 13.3779C37.6686 13.3187 37.7826 13.2412 37.9102 13.1455C38.0423 13.0498 38.179 12.945 38.3203 12.8311C38.4616 12.7171 38.596 12.6055 38.7236 12.4961C38.8558 12.3822 38.9743 12.2796 39.0791 12.1885C39.1839 12.0973 39.2637 12.029 39.3184 11.9834C39.3639 12.0244 39.4141 12.0768 39.4688 12.1406C39.5234 12.2044 39.5758 12.2637 39.626 12.3184C39.5257 12.4186 39.4004 12.5417 39.25 12.6875C39.0996 12.8288 38.9355 12.9746 38.7578 13.125C38.5846 13.2754 38.4023 13.4258 38.2109 13.5762C38.0241 13.7266 37.8418 13.861 37.6641 13.9795C37.4863 14.098 37.32 14.1937 37.165 14.2666C37.0101 14.3395 36.8802 14.376 36.7754 14.376C36.707 14.376 36.6204 14.3509 36.5156 14.3008C36.4108 14.2552 36.3083 14.196 36.208 14.123C36.1123 14.0547 36.0303 13.9772 35.9619 13.8906C35.8936 13.804 35.8594 13.7197 35.8594 13.6377C35.9004 13.4508 35.9551 13.2389 36.0234 13.002C36.0964 12.765 36.1738 12.5234 36.2559 12.2773C36.3379 12.0267 36.4222 11.7806 36.5088 11.5391C36.5999 11.293 36.6865 11.0674 36.7686 10.8623L36.7549 10.876C36.6683 10.9808 36.543 11.1198 36.3789 11.293C36.2194 11.4616 36.0371 11.6803 35.832 11.9492C35.627 12.2135 35.4105 12.5348 35.1826 12.9131C34.9548 13.2868 34.7314 13.7311 34.5127 14.2461C34.4854 14.3099 34.4603 14.36 34.4375 14.3965C34.4147 14.4329 34.3714 14.4512 34.3076 14.4512C34.2301 14.4512 34.1413 14.4284 34.041 14.3828C33.9453 14.3418 33.8473 14.2848 33.7471 14.2119C33.6423 14.1436 33.5397 14.0661 33.4395 13.9795C33.3346 13.8929 33.2412 13.8063 33.1592 13.7197C33.1592 13.6924 33.1729 13.6149 33.2002 13.4873C33.223 13.3597 33.2572 13.2002 33.3027 13.0088C33.3483 12.8128 33.4053 12.5918 33.4736 12.3457C33.542 12.0951 33.6195 11.833 33.7061 11.5596C33.7926 11.2861 33.8883 11.0081 33.9932 10.7256C34.0934 10.4385 34.2028 10.1628 34.3213 9.89844C34.5127 9.98958 34.7246 10.1012 34.957 10.2334C35.194 10.3656 35.4128 10.5205 35.6133 10.6982ZM43.8301 5.1543C43.8301 5.3138 43.7799 5.49837 43.6797 5.70801C43.584 5.91764 43.4632 6.12728 43.3174 6.33691C43.1761 6.54655 43.0234 6.74251 42.8594 6.9248C42.6953 7.10254 42.5495 7.24382 42.4219 7.34863C42.3991 7.34408 42.3672 7.3304 42.3262 7.30762C42.2852 7.28027 42.2419 7.25065 42.1963 7.21875C42.1553 7.18685 42.1165 7.15495 42.0801 7.12305C42.0482 7.09115 42.0299 7.06836 42.0254 7.05469C42.0755 7.01367 42.1393 6.94531 42.2168 6.84961C42.2943 6.75391 42.3672 6.65365 42.4355 6.54883C42.5085 6.43945 42.57 6.33691 42.6201 6.24121C42.6748 6.14095 42.7021 6.06803 42.7021 6.02246C42.7021 5.9541 42.668 5.88574 42.5996 5.81738C42.5358 5.74447 42.4606 5.67839 42.374 5.61914C42.2874 5.55534 42.2054 5.50065 42.1279 5.45508C42.0505 5.40495 42.0026 5.36849 41.9844 5.3457C42.0026 5.25456 42.0436 5.14746 42.1074 5.02441C42.1712 4.90137 42.2396 4.78288 42.3125 4.66895C42.39 4.55501 42.4652 4.45475 42.5381 4.36816C42.611 4.27702 42.6657 4.22005 42.7021 4.19727C42.7705 4.19727 42.8662 4.22917 42.9893 4.29297C43.1169 4.35221 43.2422 4.42969 43.3652 4.52539C43.4928 4.61654 43.6022 4.71908 43.6934 4.83301C43.7845 4.94694 43.8301 5.05404 43.8301 5.1543Z" fill="black"/>
</svg>
